<?xml version="1.0" encoding="utf-8"?>
<!-- Generator: Adobe Illustrator 26.5.0, SVG Export Plug-In . SVG Version: 6.00 Build 0)  -->
<svg version="1.1" id="Layer_1" xmlns="http://www.w3.org/2000/svg" xmlns:xlink="http://www.w3.org/1999/xlink" x="0px" y="0px"
	 viewBox="0 0 49.1 32" style="enable-background:new 0 0 49.1 32;" xml:space="preserve">
<style type="text/css">
	.st0{fill:#4E545F;}
</style>
<!-- 23. 3. 22. 동화 측 개선 사항으로 리얼그리드 컬럼 헤더 expandable 아이콘 <<<에서 <로 간소화-->
<g>
	<!-- <path class="st0" d="M43.1,27.4L43.1,27.4c1.1,1,2.7,0.9,3.6-0.2c0.8-0.9,0.8-2.3,0-3.3l-8.1-8.1l7.7-7.7c1-1,1-2.6,0-3.5
		c-0.5-0.5-1.1-0.7-1.8-0.7c-0.6,0-1.3,0.2-1.8,0.7l-9.6,9.6c-0.8,0.9-0.9,2.3,0,3.2L43.1,27.4z"/>
	<path class="st0" d="M27.7,27.4L27.7,27.4c0.6,0.5,1.2,0.7,1.9,0.7c0.7-0.1,1.3-0.4,1.7-0.9c0.8-0.9,0.8-2.3,0-3.3l-8.1-8.1L31,8.2
		c1-1,1-2.6,0-3.5c-0.5-0.5-1.1-0.7-1.8-0.7c-0.6,0-1.3,0.2-1.8,0.7l-9.6,9.6c-0.9,0.9-0.9,2.4,0,3.3L27.7,27.4z"/> -->
	<path class="st0" d="M2.4,17.6l9.9,9.9l0.1,0.1c1,0.9,2.6,0.8,3.5-0.3c0.8-0.9,0.8-2.3,0-3.3l-8.1-8.1l7.7-7.7c1-1,1-2.6,0-3.5
		c-0.5-0.5-1.1-0.7-1.8-0.7c-0.6,0-1.3,0.2-1.8,0.7l-9.6,9.6C1.5,15.2,1.5,16.6,2.4,17.6z"/>
</g>
</svg>
