<svg xmlns="http://www.w3.org/2000/svg" width="461.9" height="96.5" viewBox="0 0 461.9 96.5"><g transform="translate(-725 -37.2)"><path d="M725,38.7h34.4q11.7,0,17.7,1.8a30.879,30.879,0,0,1,14,8.6A39.819,39.819,0,0,1,800,64.2a69.794,69.794,0,0,1,3.1,22,60.816,60.816,0,0,1-2.9,19.8,41.066,41.066,0,0,1-10,16.5,32.355,32.355,0,0,1-13.2,7.4c-4.2,1.3-9.7,2-16.7,2H725Zm18.8,15.8v61.7h14a51.08,51.08,0,0,0,11.4-.9,17.7,17.7,0,0,0,7.6-3.9c2-1.8,3.7-4.8,4.9-9,1.3-4.2,1.9-9.9,1.9-17.1s-.6-12.7-1.9-16.6a21.718,21.718,0,0,0-5.3-9,18.432,18.432,0,0,0-8.7-4.4c-2.6-.6-7.8-.9-15.4-.9h-8.5Z" fill="#414141"/><path d="M816.9,107V89.2H852V107Z" fill="#414141"/><path d="M857.7,101.6,876,99.8c1.1,6.1,3.3,10.7,6.7,13.5,3.4,2.9,7.9,4.3,13.6,4.3,6.1,0,10.6-1.3,13.7-3.8,3.1-2.6,4.6-5.6,4.6-9a8.272,8.272,0,0,0-1.9-5.6,15.214,15.214,0,0,0-6.8-4c-2.2-.8-7.2-2.1-15.1-4.1-10.1-2.5-17.2-5.6-21.2-9.2A24.351,24.351,0,0,1,861,63.1a23.824,23.824,0,0,1,4-13.3,25.3,25.3,0,0,1,11.6-9.4c5.1-2.2,11.2-3.2,18.3-3.2,11.7,0,20.5,2.6,26.4,7.7s9,12,9.3,20.5l-18.6.8c-.8-4.8-2.5-8.2-5.2-10.3-2.6-2.1-6.6-3.1-11.9-3.1-5.5,0-9.7,1.1-12.8,3.4a6.776,6.776,0,0,0-3,5.8,7.186,7.186,0,0,0,2.8,5.7c2.4,2,8.1,4.1,17.3,6.2,9.2,2.2,15.9,4.4,20.3,6.7a26.26,26.26,0,0,1,10.3,9.5c2.5,4,3.7,9,3.7,14.8a27.406,27.406,0,0,1-4.5,15,26.962,26.962,0,0,1-12.6,10.4c-5.4,2.3-12.2,3.4-20.3,3.4-11.8,0-20.8-2.7-27.1-8.2C862.7,119.9,858.9,112,857.7,101.6Z" fill="#414141"/><path d="M962.5,85l-16.2-2.9c1.8-6.5,5-11.4,9.4-14.5s11.1-4.7,19.8-4.7c8,0,13.9.9,17.8,2.8s6.6,4.3,8.2,7.2,2.4,8.2,2.4,16l-.2,20.8a68.867,68.867,0,0,0,.9,13.1,39.881,39.881,0,0,0,3.2,9.1H990.1c-.5-1.2-1-2.9-1.7-5.3q-.45-1.65-.6-2.1a32.328,32.328,0,0,1-9.8,6.7,27.842,27.842,0,0,1-11.1,2.2c-7,0-12.4-1.9-16.4-5.7a18.8,18.8,0,0,1-6-14.3,19.437,19.437,0,0,1,2.7-10.2,17.816,17.816,0,0,1,7.7-6.9,59.731,59.731,0,0,1,14.2-4.2c8.3-1.6,14.1-3,17.4-4.4V85.9c0-3.4-.8-5.9-2.5-7.3-1.7-1.5-4.9-2.2-9.6-2.2-3.2,0-5.7.6-7.4,1.9C965,79.7,963.6,81.9,962.5,85Zm23.9,14.5a89.526,89.526,0,0,1-10.9,2.7c-5,1.1-8.2,2.1-9.7,3.1a7.654,7.654,0,0,0-3.5,6.3,8.636,8.636,0,0,0,2.8,6.5,9.813,9.813,0,0,0,7.1,2.7,15.567,15.567,0,0,0,9.2-3.2,11.23,11.23,0,0,0,4.3-5.9c.5-1.5.7-4.4.7-8.7V99.5Z" fill="#414141"/><path d="M1021.5,131.9V38.7h17.9v93.2Z" fill="#414141"/><path d="M1096.8,110.4l17.8,3c-2.3,6.5-5.9,11.5-10.8,14.9s-11.1,5.1-18.5,5.1c-11.7,0-20.4-3.8-26.1-11.5-4.4-6.1-6.7-13.9-6.7-23.3,0-11.2,2.9-19.9,8.8-26.3,5.8-6.3,13.2-9.5,22.2-9.5,10,0,18,3.3,23.8,9.9s8.6,16.8,8.3,30.5h-44.7c.1,5.3,1.6,9.4,4.3,12.4a13.258,13.258,0,0,0,10.3,4.4,11.4,11.4,0,0,0,7.1-2.3C1094.4,116.3,1095.8,113.8,1096.8,110.4Zm1-18c-.1-5.2-1.5-9.1-4-11.8a12.117,12.117,0,0,0-9.3-4,12.4,12.4,0,0,0-9.7,4.3c-2.5,2.8-3.8,6.7-3.8,11.6h26.8Z" fill="#414141"/><path d="M1123.8,112.6l17.9-2.7a13.309,13.309,0,0,0,4.6,7.9c2.3,1.8,5.6,2.7,9.8,2.7,4.6,0,8.1-.8,10.4-2.5a5.7,5.7,0,0,0,2.4-4.8,4.521,4.521,0,0,0-1.3-3.4q-1.35-1.2-6-2.4c-14.4-3.2-23.5-6.1-27.4-8.7a17.413,17.413,0,0,1-8-15.2,18.611,18.611,0,0,1,6.9-14.7c4.6-4,11.8-6,21.5-6,9.2,0,16.1,1.5,20.6,4.5a23.226,23.226,0,0,1,9.3,13.3l-16.8,3.1a10.378,10.378,0,0,0-4.1-6c-2-1.4-4.9-2.1-8.6-2.1-4.7,0-8.1.7-10.1,2a4.013,4.013,0,0,0-2,3.6,3.719,3.719,0,0,0,1.8,3.2c1.6,1.2,7.2,2.9,16.7,5,9.5,2.2,16.2,4.8,19.9,7.9,3.7,3.2,5.6,7.6,5.6,13.3,0,6.2-2.6,11.5-7.8,16-5.2,4.4-12.8,6.7-22.9,6.7-9.2,0-16.5-1.9-21.8-5.6A25.335,25.335,0,0,1,1123.8,112.6Z" fill="#414141"/></g></svg>